<mxfile host="app.diagrams.net" modified="2020-10-15T04:53:52.265Z" agent="5.0 (Windows NT 10.0; Win64; x64) AppleWebKit/537.36 (KHTML, like Gecko) Chrome/86.0.4240.75 Safari/537.36" etag="KhtrvimI1f0xNEiVeG50" version="13.8.0" type="github">
  <diagram id="ArHhOgh3IaD8CNQqkL_k" name="Page-1">
    <mxGraphModel dx="1102" dy="614" grid="1" gridSize="10" guides="1" tooltips="1" connect="1" arrows="1" fold="1" page="1" pageScale="1" pageWidth="827" pageHeight="1169" math="0" shadow="0">
      <root>
        <mxCell id="0" />
        <mxCell id="1" parent="0" />
        <mxCell id="pSBBILQs86cwOw-8D6nt-1" value="Profesor" style="rounded=0;whiteSpace=wrap;html=1;fontSize=16;" vertex="1" parent="1">
          <mxGeometry x="120" y="280" width="80" height="40" as="geometry" />
        </mxCell>
        <mxCell id="pSBBILQs86cwOw-8D6nt-2" value="num_empleado" style="ellipse;whiteSpace=wrap;html=1;align=center;fontSize=14;" vertex="1" parent="1">
          <mxGeometry x="180" y="180" width="120" height="40" as="geometry" />
        </mxCell>
        <mxCell id="pSBBILQs86cwOw-8D6nt-3" value="nombre" style="ellipse;whiteSpace=wrap;html=1;align=center;fontSize=14;" vertex="1" parent="1">
          <mxGeometry x="20" y="210" width="80" height="40" as="geometry" />
        </mxCell>
        <mxCell id="pSBBILQs86cwOw-8D6nt-4" value="ape_pat" style="ellipse;whiteSpace=wrap;html=1;align=center;fontSize=14;" vertex="1" parent="1">
          <mxGeometry x="10" y="260" width="80" height="40" as="geometry" />
        </mxCell>
        <mxCell id="pSBBILQs86cwOw-8D6nt-7" value="ape_mat" style="ellipse;whiteSpace=wrap;html=1;align=center;fontSize=14;" vertex="1" parent="1">
          <mxGeometry x="10" y="310" width="80" height="40" as="geometry" />
        </mxCell>
        <mxCell id="pSBBILQs86cwOw-8D6nt-8" value="dir" style="ellipse;whiteSpace=wrap;html=1;align=center;fontSize=14;" vertex="1" parent="1">
          <mxGeometry x="40" y="170" width="60" height="30" as="geometry" />
        </mxCell>
        <mxCell id="pSBBILQs86cwOw-8D6nt-9" value="tel" style="ellipse;whiteSpace=wrap;html=1;align=center;fontSize=14;" vertex="1" parent="1">
          <mxGeometry x="110" y="180" width="60" height="30" as="geometry" />
        </mxCell>
        <mxCell id="pSBBILQs86cwOw-8D6nt-10" value="" style="endArrow=none;html=1;rounded=0;fontSize=14;exitX=1;exitY=0.5;exitDx=0;exitDy=0;entryX=0;entryY=0.75;entryDx=0;entryDy=0;" edge="1" parent="1" source="pSBBILQs86cwOw-8D6nt-7" target="pSBBILQs86cwOw-8D6nt-1">
          <mxGeometry relative="1" as="geometry">
            <mxPoint x="330" y="320" as="sourcePoint" />
            <mxPoint x="490" y="320" as="targetPoint" />
          </mxGeometry>
        </mxCell>
        <mxCell id="pSBBILQs86cwOw-8D6nt-11" value="" style="endArrow=none;html=1;rounded=0;fontSize=14;exitX=0;exitY=1;exitDx=0;exitDy=0;entryX=0.25;entryY=0;entryDx=0;entryDy=0;" edge="1" parent="1" source="pSBBILQs86cwOw-8D6nt-2" target="pSBBILQs86cwOw-8D6nt-1">
          <mxGeometry relative="1" as="geometry">
            <mxPoint x="330" y="320" as="sourcePoint" />
            <mxPoint x="490" y="320" as="targetPoint" />
          </mxGeometry>
        </mxCell>
        <mxCell id="pSBBILQs86cwOw-8D6nt-12" value="" style="endArrow=none;html=1;rounded=0;fontSize=14;entryX=0.25;entryY=0;entryDx=0;entryDy=0;" edge="1" parent="1" source="pSBBILQs86cwOw-8D6nt-9" target="pSBBILQs86cwOw-8D6nt-1">
          <mxGeometry relative="1" as="geometry">
            <mxPoint x="330" y="320" as="sourcePoint" />
            <mxPoint x="490" y="320" as="targetPoint" />
          </mxGeometry>
        </mxCell>
        <mxCell id="pSBBILQs86cwOw-8D6nt-13" value="" style="endArrow=none;html=1;rounded=0;fontSize=14;exitX=1;exitY=1;exitDx=0;exitDy=0;entryX=0.25;entryY=0;entryDx=0;entryDy=0;" edge="1" parent="1" source="pSBBILQs86cwOw-8D6nt-8" target="pSBBILQs86cwOw-8D6nt-1">
          <mxGeometry relative="1" as="geometry">
            <mxPoint x="330" y="320" as="sourcePoint" />
            <mxPoint x="490" y="320" as="targetPoint" />
          </mxGeometry>
        </mxCell>
        <mxCell id="pSBBILQs86cwOw-8D6nt-14" value="" style="endArrow=none;html=1;rounded=0;fontSize=14;exitX=1;exitY=1;exitDx=0;exitDy=0;entryX=0;entryY=0;entryDx=0;entryDy=0;" edge="1" parent="1" source="pSBBILQs86cwOw-8D6nt-3" target="pSBBILQs86cwOw-8D6nt-1">
          <mxGeometry relative="1" as="geometry">
            <mxPoint x="330" y="320" as="sourcePoint" />
            <mxPoint x="490" y="320" as="targetPoint" />
          </mxGeometry>
        </mxCell>
        <mxCell id="pSBBILQs86cwOw-8D6nt-15" value="" style="endArrow=none;html=1;rounded=0;fontSize=14;exitX=1;exitY=0.5;exitDx=0;exitDy=0;entryX=0;entryY=0.5;entryDx=0;entryDy=0;" edge="1" parent="1" source="pSBBILQs86cwOw-8D6nt-4" target="pSBBILQs86cwOw-8D6nt-1">
          <mxGeometry relative="1" as="geometry">
            <mxPoint x="330" y="320" as="sourcePoint" />
            <mxPoint x="490" y="320" as="targetPoint" />
          </mxGeometry>
        </mxCell>
        <mxCell id="pSBBILQs86cwOw-8D6nt-16" value="Curso" style="whiteSpace=wrap;html=1;align=center;fontSize=14;" vertex="1" parent="1">
          <mxGeometry x="520" y="280" width="80" height="40" as="geometry" />
        </mxCell>
        <mxCell id="pSBBILQs86cwOw-8D6nt-17" value="nombre" style="ellipse;whiteSpace=wrap;html=1;align=center;fontSize=14;" vertex="1" parent="1">
          <mxGeometry x="500" y="220" width="70" height="30" as="geometry" />
        </mxCell>
        <mxCell id="pSBBILQs86cwOw-8D6nt-18" value="codigo" style="ellipse;whiteSpace=wrap;html=1;align=center;fontSize=14;" vertex="1" parent="1">
          <mxGeometry x="580" y="220" width="70" height="30" as="geometry" />
        </mxCell>
        <mxCell id="pSBBILQs86cwOw-8D6nt-19" value="" style="endArrow=none;html=1;rounded=0;fontSize=14;exitX=0.5;exitY=1;exitDx=0;exitDy=0;entryX=0.5;entryY=0;entryDx=0;entryDy=0;" edge="1" parent="1" source="pSBBILQs86cwOw-8D6nt-18" target="pSBBILQs86cwOw-8D6nt-16">
          <mxGeometry relative="1" as="geometry">
            <mxPoint x="490" y="320" as="sourcePoint" />
            <mxPoint x="650" y="320" as="targetPoint" />
          </mxGeometry>
        </mxCell>
        <mxCell id="pSBBILQs86cwOw-8D6nt-20" value="" style="endArrow=none;html=1;rounded=0;fontSize=14;exitX=0.5;exitY=1;exitDx=0;exitDy=0;entryX=0.5;entryY=0;entryDx=0;entryDy=0;" edge="1" parent="1" source="pSBBILQs86cwOw-8D6nt-17" target="pSBBILQs86cwOw-8D6nt-16">
          <mxGeometry relative="1" as="geometry">
            <mxPoint x="490" y="320" as="sourcePoint" />
            <mxPoint x="650" y="320" as="targetPoint" />
          </mxGeometry>
        </mxCell>
        <mxCell id="pSBBILQs86cwOw-8D6nt-21" value="Alumno" style="whiteSpace=wrap;html=1;align=center;fontSize=14;" vertex="1" parent="1">
          <mxGeometry x="920" y="280" width="80" height="40" as="geometry" />
        </mxCell>
        <mxCell id="pSBBILQs86cwOw-8D6nt-22" value="num_expediente" style="ellipse;whiteSpace=wrap;html=1;align=center;fontSize=14;" vertex="1" parent="1">
          <mxGeometry x="1020" y="190" width="120" height="40" as="geometry" />
        </mxCell>
        <mxCell id="pSBBILQs86cwOw-8D6nt-23" value="nombre" style="ellipse;whiteSpace=wrap;html=1;align=center;fontSize=14;" vertex="1" parent="1">
          <mxGeometry x="1060" y="240" width="80" height="40" as="geometry" />
        </mxCell>
        <mxCell id="pSBBILQs86cwOw-8D6nt-24" value="ape_pat" style="ellipse;whiteSpace=wrap;html=1;align=center;fontSize=14;" vertex="1" parent="1">
          <mxGeometry x="1060" y="290" width="80" height="40" as="geometry" />
        </mxCell>
        <mxCell id="pSBBILQs86cwOw-8D6nt-25" value="ape_mat" style="ellipse;whiteSpace=wrap;html=1;align=center;fontSize=14;" vertex="1" parent="1">
          <mxGeometry x="1040" y="340" width="80" height="40" as="geometry" />
        </mxCell>
        <mxCell id="pSBBILQs86cwOw-8D6nt-26" value="fec_nac" style="ellipse;whiteSpace=wrap;html=1;align=center;fontSize=14;" vertex="1" parent="1">
          <mxGeometry x="930" y="200" width="80" height="40" as="geometry" />
        </mxCell>
        <mxCell id="pSBBILQs86cwOw-8D6nt-27" value="" style="endArrow=none;html=1;rounded=0;fontSize=14;entryX=0;entryY=0;entryDx=0;entryDy=0;exitX=1;exitY=0.5;exitDx=0;exitDy=0;" edge="1" parent="1" source="pSBBILQs86cwOw-8D6nt-21" target="pSBBILQs86cwOw-8D6nt-25">
          <mxGeometry relative="1" as="geometry">
            <mxPoint x="650" y="320" as="sourcePoint" />
            <mxPoint x="810" y="320" as="targetPoint" />
          </mxGeometry>
        </mxCell>
        <mxCell id="pSBBILQs86cwOw-8D6nt-28" value="" style="endArrow=none;html=1;rounded=0;fontSize=14;entryX=0;entryY=0.5;entryDx=0;entryDy=0;exitX=1;exitY=0.5;exitDx=0;exitDy=0;" edge="1" parent="1" source="pSBBILQs86cwOw-8D6nt-21" target="pSBBILQs86cwOw-8D6nt-24">
          <mxGeometry relative="1" as="geometry">
            <mxPoint x="650" y="320" as="sourcePoint" />
            <mxPoint x="810" y="320" as="targetPoint" />
          </mxGeometry>
        </mxCell>
        <mxCell id="pSBBILQs86cwOw-8D6nt-29" value="" style="endArrow=none;html=1;rounded=0;fontSize=14;entryX=0;entryY=0.5;entryDx=0;entryDy=0;exitX=1;exitY=0;exitDx=0;exitDy=0;" edge="1" parent="1" source="pSBBILQs86cwOw-8D6nt-21" target="pSBBILQs86cwOw-8D6nt-23">
          <mxGeometry relative="1" as="geometry">
            <mxPoint x="650" y="320" as="sourcePoint" />
            <mxPoint x="810" y="320" as="targetPoint" />
          </mxGeometry>
        </mxCell>
        <mxCell id="pSBBILQs86cwOw-8D6nt-30" value="" style="endArrow=none;html=1;rounded=0;fontSize=14;entryX=0;entryY=1;entryDx=0;entryDy=0;exitX=0.75;exitY=0;exitDx=0;exitDy=0;" edge="1" parent="1" source="pSBBILQs86cwOw-8D6nt-21" target="pSBBILQs86cwOw-8D6nt-22">
          <mxGeometry relative="1" as="geometry">
            <mxPoint x="650" y="320" as="sourcePoint" />
            <mxPoint x="810" y="320" as="targetPoint" />
          </mxGeometry>
        </mxCell>
        <mxCell id="pSBBILQs86cwOw-8D6nt-31" value="" style="endArrow=none;html=1;rounded=0;fontSize=14;entryX=0.5;entryY=1;entryDx=0;entryDy=0;exitX=0.5;exitY=0;exitDx=0;exitDy=0;" edge="1" parent="1" source="pSBBILQs86cwOw-8D6nt-21" target="pSBBILQs86cwOw-8D6nt-26">
          <mxGeometry relative="1" as="geometry">
            <mxPoint x="650" y="320" as="sourcePoint" />
            <mxPoint x="810" y="320" as="targetPoint" />
          </mxGeometry>
        </mxCell>
        <mxCell id="pSBBILQs86cwOw-8D6nt-33" value="imparte" style="shape=rhombus;perimeter=rhombusPerimeter;whiteSpace=wrap;html=1;align=center;fontSize=14;" vertex="1" parent="1">
          <mxGeometry x="313.5" y="275" width="100" height="50" as="geometry" />
        </mxCell>
        <mxCell id="pSBBILQs86cwOw-8D6nt-34" value="" style="endArrow=none;html=1;rounded=0;fontSize=14;exitX=1;exitY=0.5;exitDx=0;exitDy=0;entryX=0;entryY=0.5;entryDx=0;entryDy=0;" edge="1" parent="1" source="pSBBILQs86cwOw-8D6nt-1" target="pSBBILQs86cwOw-8D6nt-33">
          <mxGeometry relative="1" as="geometry">
            <mxPoint x="330" y="320" as="sourcePoint" />
            <mxPoint x="490" y="320" as="targetPoint" />
          </mxGeometry>
        </mxCell>
        <mxCell id="pSBBILQs86cwOw-8D6nt-35" value="" style="endArrow=none;html=1;rounded=0;fontSize=14;entryX=0;entryY=0.5;entryDx=0;entryDy=0;exitX=1;exitY=0.5;exitDx=0;exitDy=0;" edge="1" parent="1" source="pSBBILQs86cwOw-8D6nt-33" target="pSBBILQs86cwOw-8D6nt-16">
          <mxGeometry relative="1" as="geometry">
            <mxPoint x="330" y="320" as="sourcePoint" />
            <mxPoint x="490" y="320" as="targetPoint" />
          </mxGeometry>
        </mxCell>
        <mxCell id="pSBBILQs86cwOw-8D6nt-41" value="tiene jefe" style="shape=rhombus;perimeter=rhombusPerimeter;whiteSpace=wrap;html=1;align=center;fontSize=14;" vertex="1" parent="1">
          <mxGeometry x="920" y="370" width="80" height="40" as="geometry" />
        </mxCell>
        <mxCell id="pSBBILQs86cwOw-8D6nt-42" value="" style="endArrow=none;html=1;rounded=0;fontSize=14;entryX=0;entryY=1;entryDx=0;entryDy=0;exitX=0;exitY=0.5;exitDx=0;exitDy=0;" edge="1" parent="1" source="pSBBILQs86cwOw-8D6nt-41" target="pSBBILQs86cwOw-8D6nt-21">
          <mxGeometry relative="1" as="geometry">
            <mxPoint x="900" y="380" as="sourcePoint" />
            <mxPoint x="800" y="320" as="targetPoint" />
          </mxGeometry>
        </mxCell>
        <mxCell id="pSBBILQs86cwOw-8D6nt-43" value="" style="endArrow=none;html=1;rounded=0;fontSize=14;entryX=1;entryY=1;entryDx=0;entryDy=0;exitX=1;exitY=0.5;exitDx=0;exitDy=0;" edge="1" parent="1" source="pSBBILQs86cwOw-8D6nt-41" target="pSBBILQs86cwOw-8D6nt-21">
          <mxGeometry relative="1" as="geometry">
            <mxPoint x="640" y="320" as="sourcePoint" />
            <mxPoint x="800" y="320" as="targetPoint" />
          </mxGeometry>
        </mxCell>
        <mxCell id="pSBBILQs86cwOw-8D6nt-36" value="toma" style="shape=rhombus;perimeter=rhombusPerimeter;whiteSpace=wrap;html=1;align=center;fontSize=14;" vertex="1" parent="1">
          <mxGeometry x="720" y="280" width="86.5" height="40" as="geometry" />
        </mxCell>
        <mxCell id="pSBBILQs86cwOw-8D6nt-47" value="" style="endArrow=none;html=1;rounded=0;fontSize=14;entryX=0;entryY=0.5;entryDx=0;entryDy=0;exitX=1;exitY=0.5;exitDx=0;exitDy=0;" edge="1" parent="1" source="pSBBILQs86cwOw-8D6nt-16" target="pSBBILQs86cwOw-8D6nt-36">
          <mxGeometry relative="1" as="geometry">
            <mxPoint x="460" y="320" as="sourcePoint" />
            <mxPoint x="620" y="320" as="targetPoint" />
          </mxGeometry>
        </mxCell>
        <mxCell id="pSBBILQs86cwOw-8D6nt-48" value="" style="endArrow=none;html=1;rounded=0;fontSize=14;entryX=0;entryY=0.5;entryDx=0;entryDy=0;exitX=1;exitY=0.5;exitDx=0;exitDy=0;" edge="1" parent="1" source="pSBBILQs86cwOw-8D6nt-36" target="pSBBILQs86cwOw-8D6nt-21">
          <mxGeometry relative="1" as="geometry">
            <mxPoint x="460" y="320" as="sourcePoint" />
            <mxPoint x="620" y="320" as="targetPoint" />
          </mxGeometry>
        </mxCell>
        <mxCell id="pSBBILQs86cwOw-8D6nt-49" value="(1,M)" style="text;strokeColor=none;fillColor=none;spacingLeft=4;spacingRight=4;overflow=hidden;rotatable=0;points=[[0,0.5],[1,0.5]];portConstraint=eastwest;fontSize=14;" vertex="1" parent="1">
          <mxGeometry x="880" y="275" width="50" height="30" as="geometry" />
        </mxCell>
        <mxCell id="pSBBILQs86cwOw-8D6nt-51" value="(1,M)" style="text;strokeColor=none;fillColor=none;spacingLeft=4;spacingRight=4;overflow=hidden;rotatable=0;points=[[0,0.5],[1,0.5]];portConstraint=eastwest;fontSize=14;" vertex="1" parent="1">
          <mxGeometry x="200" y="275" width="50" height="30" as="geometry" />
        </mxCell>
      </root>
    </mxGraphModel>
  </diagram>
</mxfile>
